<mxfile host="Electron" agent="Mozilla/5.0 (Windows NT 10.0; Win64; x64) AppleWebKit/537.36 (KHTML, like Gecko) draw.io/24.7.5 Chrome/126.0.6478.183 Electron/31.3.0 Safari/537.36" version="24.7.5" pages="2">
  <diagram name="before" id="Swgp1JupqaymyNtrD0fl">
    <mxGraphModel dx="1100" dy="902" grid="1" gridSize="10" guides="1" tooltips="1" connect="1" arrows="1" fold="1" page="1" pageScale="1" pageWidth="1700" pageHeight="1100" math="0" shadow="0">
      <root>
        <mxCell id="0" />
        <mxCell id="1" parent="0" />
        <mxCell id="JXe_-fkLho1jXvJRKPKP-19" value="" style="rounded=0;whiteSpace=wrap;html=1;" vertex="1" parent="1">
          <mxGeometry x="120" y="120" width="560" height="480" as="geometry" />
        </mxCell>
        <mxCell id="JXe_-fkLho1jXvJRKPKP-1" value="Topic" style="rounded=0;whiteSpace=wrap;html=1;" vertex="1" parent="1">
          <mxGeometry x="440" y="160" width="120" height="60" as="geometry" />
        </mxCell>
        <mxCell id="JXe_-fkLho1jXvJRKPKP-2" value="Topic" style="rounded=0;whiteSpace=wrap;html=1;" vertex="1" parent="1">
          <mxGeometry x="240" y="160" width="120" height="60" as="geometry" />
        </mxCell>
        <mxCell id="JXe_-fkLho1jXvJRKPKP-6" value="Deployment" style="fillColor=#EFF0F3;strokeColor=none;dashed=0;verticalAlign=top;fontStyle=0;fontColor=#232F3D;whiteSpace=wrap;html=1;" vertex="1" parent="1">
          <mxGeometry x="280" y="360" width="240" height="120" as="geometry" />
        </mxCell>
        <mxCell id="JXe_-fkLho1jXvJRKPKP-7" style="edgeStyle=orthogonalEdgeStyle;rounded=0;orthogonalLoop=1;jettySize=auto;html=1;dashed=1;" edge="1" parent="1" source="JXe_-fkLho1jXvJRKPKP-3" target="JXe_-fkLho1jXvJRKPKP-2">
          <mxGeometry relative="1" as="geometry">
            <mxPoint x="280" y="220" as="targetPoint" />
            <Array as="points">
              <mxPoint x="335" y="320" />
              <mxPoint x="280" y="320" />
            </Array>
          </mxGeometry>
        </mxCell>
        <mxCell id="JXe_-fkLho1jXvJRKPKP-10" style="edgeStyle=orthogonalEdgeStyle;rounded=0;orthogonalLoop=1;jettySize=auto;html=1;dashed=1;" edge="1" parent="1" source="JXe_-fkLho1jXvJRKPKP-3" target="JXe_-fkLho1jXvJRKPKP-1">
          <mxGeometry relative="1" as="geometry">
            <Array as="points">
              <mxPoint x="335" y="320" />
              <mxPoint x="480" y="320" />
            </Array>
          </mxGeometry>
        </mxCell>
        <mxCell id="JXe_-fkLho1jXvJRKPKP-3" value="" style="aspect=fixed;sketch=0;html=1;dashed=0;whitespace=wrap;verticalLabelPosition=bottom;verticalAlign=top;fillColor=#2875E2;strokeColor=#ffffff;points=[[0.005,0.63,0],[0.1,0.2,0],[0.9,0.2,0],[0.5,0,0],[0.995,0.63,0],[0.72,0.99,0],[0.5,1,0],[0.28,0.99,0]];shape=mxgraph.kubernetes.icon2;kubernetesLabel=1;prIcon=pod" vertex="1" parent="1">
          <mxGeometry x="310" y="392" width="50" height="48" as="geometry" />
        </mxCell>
        <mxCell id="JXe_-fkLho1jXvJRKPKP-8" style="edgeStyle=orthogonalEdgeStyle;rounded=0;orthogonalLoop=1;jettySize=auto;html=1;dashed=1;" edge="1" parent="1" source="JXe_-fkLho1jXvJRKPKP-4" target="JXe_-fkLho1jXvJRKPKP-2">
          <mxGeometry relative="1" as="geometry">
            <mxPoint x="300" y="220" as="targetPoint" />
            <Array as="points">
              <mxPoint x="400" y="300" />
              <mxPoint x="300" y="300" />
            </Array>
          </mxGeometry>
        </mxCell>
        <mxCell id="JXe_-fkLho1jXvJRKPKP-11" style="edgeStyle=orthogonalEdgeStyle;rounded=0;orthogonalLoop=1;jettySize=auto;html=1;dashed=1;" edge="1" parent="1" source="JXe_-fkLho1jXvJRKPKP-4" target="JXe_-fkLho1jXvJRKPKP-1">
          <mxGeometry relative="1" as="geometry">
            <mxPoint x="480" y="249.9999999999999" as="targetPoint" />
            <Array as="points">
              <mxPoint x="400" y="300" />
              <mxPoint x="500" y="300" />
            </Array>
          </mxGeometry>
        </mxCell>
        <mxCell id="JXe_-fkLho1jXvJRKPKP-4" value="" style="aspect=fixed;sketch=0;html=1;dashed=0;whitespace=wrap;verticalLabelPosition=bottom;verticalAlign=top;fillColor=#2875E2;strokeColor=#ffffff;points=[[0.005,0.63,0],[0.1,0.2,0],[0.9,0.2,0],[0.5,0,0],[0.995,0.63,0],[0.72,0.99,0],[0.5,1,0],[0.28,0.99,0]];shape=mxgraph.kubernetes.icon2;kubernetesLabel=1;prIcon=pod" vertex="1" parent="1">
          <mxGeometry x="375" y="392" width="50" height="48" as="geometry" />
        </mxCell>
        <mxCell id="JXe_-fkLho1jXvJRKPKP-5" value="" style="aspect=fixed;sketch=0;html=1;dashed=0;whitespace=wrap;verticalLabelPosition=bottom;verticalAlign=top;fillColor=#2875E2;strokeColor=#ffffff;points=[[0.005,0.63,0],[0.1,0.2,0],[0.9,0.2,0],[0.5,0,0],[0.995,0.63,0],[0.72,0.99,0],[0.5,1,0],[0.28,0.99,0]];shape=mxgraph.kubernetes.icon2;kubernetesLabel=1;prIcon=pod" vertex="1" parent="1">
          <mxGeometry x="440" y="392" width="50" height="48" as="geometry" />
        </mxCell>
        <mxCell id="JXe_-fkLho1jXvJRKPKP-9" style="edgeStyle=orthogonalEdgeStyle;rounded=0;orthogonalLoop=1;jettySize=auto;html=1;dashed=1;" edge="1" parent="1" source="JXe_-fkLho1jXvJRKPKP-5" target="JXe_-fkLho1jXvJRKPKP-2">
          <mxGeometry relative="1" as="geometry">
            <Array as="points">
              <mxPoint x="465" y="280" />
              <mxPoint x="320" y="280" />
            </Array>
          </mxGeometry>
        </mxCell>
        <mxCell id="JXe_-fkLho1jXvJRKPKP-12" style="edgeStyle=orthogonalEdgeStyle;rounded=0;orthogonalLoop=1;jettySize=auto;html=1;dashed=1;" edge="1" parent="1" source="JXe_-fkLho1jXvJRKPKP-5" target="JXe_-fkLho1jXvJRKPKP-1">
          <mxGeometry relative="1" as="geometry">
            <Array as="points">
              <mxPoint x="465" y="280" />
              <mxPoint x="521" y="280" />
            </Array>
          </mxGeometry>
        </mxCell>
        <mxCell id="JXe_-fkLho1jXvJRKPKP-16" style="edgeStyle=orthogonalEdgeStyle;rounded=0;orthogonalLoop=1;jettySize=auto;html=1;" edge="1" parent="1" source="JXe_-fkLho1jXvJRKPKP-14" target="JXe_-fkLho1jXvJRKPKP-4">
          <mxGeometry relative="1" as="geometry" />
        </mxCell>
        <mxCell id="JXe_-fkLho1jXvJRKPKP-18" style="edgeStyle=orthogonalEdgeStyle;rounded=0;orthogonalLoop=1;jettySize=auto;html=1;" edge="1" parent="1" source="JXe_-fkLho1jXvJRKPKP-14" target="JXe_-fkLho1jXvJRKPKP-3">
          <mxGeometry relative="1" as="geometry" />
        </mxCell>
        <mxCell id="JXe_-fkLho1jXvJRKPKP-14" value="" style="sketch=0;aspect=fixed;pointerEvents=1;shadow=0;dashed=0;html=1;strokeColor=none;labelPosition=center;verticalLabelPosition=bottom;verticalAlign=top;align=center;fillColor=#00188D;shape=mxgraph.mscae.enterprise.application" vertex="1" parent="1">
          <mxGeometry x="375" y="533" width="50" height="34" as="geometry" />
        </mxCell>
        <mxCell id="JXe_-fkLho1jXvJRKPKP-17" style="edgeStyle=orthogonalEdgeStyle;rounded=0;orthogonalLoop=1;jettySize=auto;html=1;entryX=0.5;entryY=1;entryDx=0;entryDy=0;entryPerimeter=0;" edge="1" parent="1" source="JXe_-fkLho1jXvJRKPKP-14" target="JXe_-fkLho1jXvJRKPKP-5">
          <mxGeometry relative="1" as="geometry" />
        </mxCell>
      </root>
    </mxGraphModel>
  </diagram>
  <diagram id="1wNLrvlEtJA6AWlKdKSI" name="after">
    <mxGraphModel dx="713" dy="515" grid="1" gridSize="10" guides="1" tooltips="1" connect="1" arrows="1" fold="1" page="1" pageScale="1" pageWidth="1700" pageHeight="1100" math="0" shadow="0">
      <root>
        <mxCell id="0" />
        <mxCell id="1" parent="0" />
        <mxCell id="eTLSK-ma2XBxH2W3wrIy-1" value="" style="rounded=0;whiteSpace=wrap;html=1;" vertex="1" parent="1">
          <mxGeometry x="40" y="120" width="720" height="480" as="geometry" />
        </mxCell>
        <mxCell id="eTLSK-ma2XBxH2W3wrIy-2" value="Topic" style="rounded=0;whiteSpace=wrap;html=1;" vertex="1" parent="1">
          <mxGeometry x="500" y="160" width="120" height="60" as="geometry" />
        </mxCell>
        <mxCell id="eTLSK-ma2XBxH2W3wrIy-3" value="Topic" style="rounded=0;whiteSpace=wrap;html=1;" vertex="1" parent="1">
          <mxGeometry x="180" y="160" width="120" height="60" as="geometry" />
        </mxCell>
        <mxCell id="eTLSK-ma2XBxH2W3wrIy-16" value="" style="sketch=0;aspect=fixed;pointerEvents=1;shadow=0;dashed=0;html=1;strokeColor=none;labelPosition=center;verticalLabelPosition=bottom;verticalAlign=top;align=center;fillColor=#00188D;shape=mxgraph.mscae.enterprise.application" vertex="1" parent="1">
          <mxGeometry x="375" y="533" width="50" height="34" as="geometry" />
        </mxCell>
        <mxCell id="eTLSK-ma2XBxH2W3wrIy-24" value="" style="group" vertex="1" connectable="0" parent="1">
          <mxGeometry x="120" y="356" width="240" height="120" as="geometry" />
        </mxCell>
        <mxCell id="eTLSK-ma2XBxH2W3wrIy-4" value="Deployment" style="fillColor=#EFF0F3;strokeColor=none;dashed=0;verticalAlign=top;fontStyle=0;fontColor=#232F3D;whiteSpace=wrap;html=1;" vertex="1" parent="eTLSK-ma2XBxH2W3wrIy-24">
          <mxGeometry width="240" height="120" as="geometry" />
        </mxCell>
        <mxCell id="eTLSK-ma2XBxH2W3wrIy-7" value="" style="aspect=fixed;sketch=0;html=1;dashed=0;whitespace=wrap;verticalLabelPosition=bottom;verticalAlign=top;fillColor=#2875E2;strokeColor=#ffffff;points=[[0.005,0.63,0],[0.1,0.2,0],[0.9,0.2,0],[0.5,0,0],[0.995,0.63,0],[0.72,0.99,0],[0.5,1,0],[0.28,0.99,0]];shape=mxgraph.kubernetes.icon2;kubernetesLabel=1;prIcon=pod" vertex="1" parent="eTLSK-ma2XBxH2W3wrIy-24">
          <mxGeometry x="30" y="32" width="50" height="48" as="geometry" />
        </mxCell>
        <mxCell id="eTLSK-ma2XBxH2W3wrIy-10" value="" style="aspect=fixed;sketch=0;html=1;dashed=0;whitespace=wrap;verticalLabelPosition=bottom;verticalAlign=top;fillColor=#2875E2;strokeColor=#ffffff;points=[[0.005,0.63,0],[0.1,0.2,0],[0.9,0.2,0],[0.5,0,0],[0.995,0.63,0],[0.72,0.99,0],[0.5,1,0],[0.28,0.99,0]];shape=mxgraph.kubernetes.icon2;kubernetesLabel=1;prIcon=pod" vertex="1" parent="eTLSK-ma2XBxH2W3wrIy-24">
          <mxGeometry x="95" y="32" width="50" height="48" as="geometry" />
        </mxCell>
        <mxCell id="eTLSK-ma2XBxH2W3wrIy-11" value="" style="aspect=fixed;sketch=0;html=1;dashed=0;whitespace=wrap;verticalLabelPosition=bottom;verticalAlign=top;fillColor=#2875E2;strokeColor=#ffffff;points=[[0.005,0.63,0],[0.1,0.2,0],[0.9,0.2,0],[0.5,0,0],[0.995,0.63,0],[0.72,0.99,0],[0.5,1,0],[0.28,0.99,0]];shape=mxgraph.kubernetes.icon2;kubernetesLabel=1;prIcon=pod" vertex="1" parent="eTLSK-ma2XBxH2W3wrIy-24">
          <mxGeometry x="160" y="32" width="50" height="48" as="geometry" />
        </mxCell>
        <mxCell id="eTLSK-ma2XBxH2W3wrIy-18" value="Deployment" style="fillColor=#EFF0F3;strokeColor=none;dashed=0;verticalAlign=top;fontStyle=0;fontColor=#232F3D;whiteSpace=wrap;html=1;" vertex="1" parent="1">
          <mxGeometry x="440" y="356" width="240" height="120" as="geometry" />
        </mxCell>
        <mxCell id="eTLSK-ma2XBxH2W3wrIy-19" value="" style="aspect=fixed;sketch=0;html=1;dashed=0;whitespace=wrap;verticalLabelPosition=bottom;verticalAlign=top;fillColor=#2875E2;strokeColor=#ffffff;points=[[0.005,0.63,0],[0.1,0.2,0],[0.9,0.2,0],[0.5,0,0],[0.995,0.63,0],[0.72,0.99,0],[0.5,1,0],[0.28,0.99,0]];shape=mxgraph.kubernetes.icon2;kubernetesLabel=1;prIcon=pod" vertex="1" parent="1">
          <mxGeometry x="500" y="388" width="50" height="48" as="geometry" />
        </mxCell>
        <mxCell id="eTLSK-ma2XBxH2W3wrIy-27" style="edgeStyle=orthogonalEdgeStyle;rounded=0;orthogonalLoop=1;jettySize=auto;html=1;dashed=1;" edge="1" parent="1" source="eTLSK-ma2XBxH2W3wrIy-20" target="eTLSK-ma2XBxH2W3wrIy-2">
          <mxGeometry relative="1" as="geometry">
            <Array as="points">
              <mxPoint x="605" y="260" />
              <mxPoint x="605" y="260" />
            </Array>
          </mxGeometry>
        </mxCell>
        <mxCell id="eTLSK-ma2XBxH2W3wrIy-20" value="" style="aspect=fixed;sketch=0;html=1;dashed=0;whitespace=wrap;verticalLabelPosition=bottom;verticalAlign=top;fillColor=#2875E2;strokeColor=#ffffff;points=[[0.005,0.63,0],[0.1,0.2,0],[0.9,0.2,0],[0.5,0,0],[0.995,0.63,0],[0.72,0.99,0],[0.5,1,0],[0.28,0.99,0]];shape=mxgraph.kubernetes.icon2;kubernetesLabel=1;prIcon=pod" vertex="1" parent="1">
          <mxGeometry x="580" y="388" width="50" height="48" as="geometry" />
        </mxCell>
        <mxCell id="eTLSK-ma2XBxH2W3wrIy-26" style="edgeStyle=orthogonalEdgeStyle;rounded=0;orthogonalLoop=1;jettySize=auto;html=1;dashed=1;" edge="1" parent="1" source="eTLSK-ma2XBxH2W3wrIy-19" target="eTLSK-ma2XBxH2W3wrIy-2">
          <mxGeometry relative="1" as="geometry">
            <Array as="points">
              <mxPoint x="525" y="260" />
              <mxPoint x="525" y="260" />
            </Array>
          </mxGeometry>
        </mxCell>
        <mxCell id="eTLSK-ma2XBxH2W3wrIy-28" style="edgeStyle=orthogonalEdgeStyle;rounded=0;orthogonalLoop=1;jettySize=auto;html=1;dashed=1;" edge="1" parent="1" source="eTLSK-ma2XBxH2W3wrIy-10" target="eTLSK-ma2XBxH2W3wrIy-3">
          <mxGeometry relative="1" as="geometry" />
        </mxCell>
        <mxCell id="eTLSK-ma2XBxH2W3wrIy-29" style="edgeStyle=orthogonalEdgeStyle;rounded=0;orthogonalLoop=1;jettySize=auto;html=1;dashed=1;" edge="1" parent="1" source="eTLSK-ma2XBxH2W3wrIy-11" target="eTLSK-ma2XBxH2W3wrIy-3">
          <mxGeometry relative="1" as="geometry">
            <Array as="points">
              <mxPoint x="305" y="304" />
              <mxPoint x="270" y="304" />
            </Array>
          </mxGeometry>
        </mxCell>
        <mxCell id="eTLSK-ma2XBxH2W3wrIy-30" style="edgeStyle=orthogonalEdgeStyle;rounded=0;orthogonalLoop=1;jettySize=auto;html=1;dashed=1;" edge="1" parent="1" source="eTLSK-ma2XBxH2W3wrIy-7" target="eTLSK-ma2XBxH2W3wrIy-3">
          <mxGeometry relative="1" as="geometry">
            <Array as="points">
              <mxPoint x="175" y="304" />
              <mxPoint x="210" y="304" />
            </Array>
          </mxGeometry>
        </mxCell>
        <mxCell id="eTLSK-ma2XBxH2W3wrIy-31" style="edgeStyle=orthogonalEdgeStyle;rounded=0;orthogonalLoop=1;jettySize=auto;html=1;" edge="1" parent="1" source="eTLSK-ma2XBxH2W3wrIy-16" target="eTLSK-ma2XBxH2W3wrIy-11">
          <mxGeometry relative="1" as="geometry" />
        </mxCell>
        <mxCell id="eTLSK-ma2XBxH2W3wrIy-32" style="edgeStyle=orthogonalEdgeStyle;rounded=0;orthogonalLoop=1;jettySize=auto;html=1;entryX=0.5;entryY=1;entryDx=0;entryDy=0;entryPerimeter=0;" edge="1" parent="1" source="eTLSK-ma2XBxH2W3wrIy-16" target="eTLSK-ma2XBxH2W3wrIy-10">
          <mxGeometry relative="1" as="geometry" />
        </mxCell>
        <mxCell id="eTLSK-ma2XBxH2W3wrIy-33" style="edgeStyle=orthogonalEdgeStyle;rounded=0;orthogonalLoop=1;jettySize=auto;html=1;entryX=0.5;entryY=1;entryDx=0;entryDy=0;entryPerimeter=0;" edge="1" parent="1" source="eTLSK-ma2XBxH2W3wrIy-16" target="eTLSK-ma2XBxH2W3wrIy-7">
          <mxGeometry relative="1" as="geometry" />
        </mxCell>
        <mxCell id="eTLSK-ma2XBxH2W3wrIy-35" style="edgeStyle=orthogonalEdgeStyle;rounded=0;orthogonalLoop=1;jettySize=auto;html=1;entryX=0.5;entryY=1;entryDx=0;entryDy=0;entryPerimeter=0;" edge="1" parent="1" source="eTLSK-ma2XBxH2W3wrIy-16" target="eTLSK-ma2XBxH2W3wrIy-20">
          <mxGeometry relative="1" as="geometry" />
        </mxCell>
        <mxCell id="eTLSK-ma2XBxH2W3wrIy-34" style="edgeStyle=orthogonalEdgeStyle;rounded=0;orthogonalLoop=1;jettySize=auto;html=1;" edge="1" parent="1" source="eTLSK-ma2XBxH2W3wrIy-16" target="eTLSK-ma2XBxH2W3wrIy-19">
          <mxGeometry relative="1" as="geometry" />
        </mxCell>
      </root>
    </mxGraphModel>
  </diagram>
</mxfile>
